<?xml version="1.0" encoding="UTF-8" standalone="no"?>
<!DOCTYPE svg PUBLIC "-//W3C//DTD SVG 1.1//EN"
 "http://www.w3.org/Graphics/SVG/1.1/DTD/svg11.dtd">
<!-- Generated by graphviz version 10.0.1 (0)
 -->
<!-- Title: CRhiRenderer Pages: 1 -->
<svg width="232pt" height="94pt"
 viewBox="0.00 0.00 231.62 93.75" xmlns="http://www.w3.org/2000/svg" xmlns:xlink="http://www.w3.org/1999/xlink">
<g id="graph0" class="graph" transform="scale(1 1) rotate(0) translate(4 89.75)">
<title>CRhiRenderer</title>
<!-- Node1 -->
<g id="Node000001" class="node">
<title>Node1</title>
<g id="a_Node000001"><a xlink:title=" ">
<polygon fill="#999999" stroke="#666666" points="153.25,-19.25 67.5,-19.25 67.5,0 153.25,0 153.25,-19.25"/>
<text text-anchor="middle" x="110.38" y="-4.8" font-family="Helvetica,sans-Serif" font-size="11.00">CRhiRenderer</text>
</a>
</g>
</g>
<!-- Node2 -->
<g id="Node000002" class="node">
<title>Node2</title>
<g id="a_Node000002"><a xlink:href="structqdebugenv_1_1CRhiRenderer_1_1StaticRenderData.html" target="_top" xlink:title=" ">
<polygon fill="white" stroke="#bfbfbf" points="100.75,-85.75 0,-85.75 0,-66.5 100.75,-66.5 100.75,-85.75"/>
<text text-anchor="middle" x="50.38" y="-71.3" font-family="Helvetica,sans-Serif" font-size="11.00">StaticRenderData</text>
</a>
</g>
</g>
<!-- Node2&#45;&gt;Node1 -->
<g id="edge1_Node000001_Node000002" class="edge">
<title>Node2&#45;&gt;Node1</title>
<g id="a_edge1_Node000001_Node000002"><a xlink:title=" ">
<path fill="none" stroke="#9a32cd" stroke-dasharray="5,2" d="M66.33,-57.97C77.84,-45.6 92.91,-29.4 102.1,-19.52"/>
<polygon fill="#9a32cd" stroke="#9a32cd" points="64,-55.34 59.75,-65.05 69.12,-60.11 64,-55.34"/>
</a>
</g>
<text text-anchor="middle" x="90" y="-38.05" font-family="Helvetica,sans-Serif" font-size="11.00" fill="grey"> sf</text>
</g>
<!-- Node3 -->
<g id="Node000003" class="node">
<title>Node3</title>
<g id="a_Node000003"><a xlink:href="classqdebugenv_1_1CRhiRenderer.html#structqdebugenv_1_1CRhiRenderer_1_1FrameRenderData" target="_top" xlink:title=" ">
<polygon fill="white" stroke="#bfbfbf" points="223.62,-85.75 119.12,-85.75 119.12,-66.5 223.62,-66.5 223.62,-85.75"/>
<text text-anchor="middle" x="171.38" y="-71.3" font-family="Helvetica,sans-Serif" font-size="11.00">FrameRenderData</text>
</a>
</g>
</g>
<!-- Node3&#45;&gt;Node1 -->
<g id="edge2_Node000001_Node000003" class="edge">
<title>Node3&#45;&gt;Node1</title>
<g id="a_edge2_Node000001_Node000003"><a xlink:title=" ">
<path fill="none" stroke="#9a32cd" stroke-dasharray="5,2" d="M155.15,-57.97C143.45,-45.6 128.13,-29.4 118.78,-19.52"/>
<polygon fill="#9a32cd" stroke="#9a32cd" points="152.44,-60.2 161.85,-65.06 157.52,-55.39 152.44,-60.2"/>
</a>
</g>
<text text-anchor="middle" x="147.38" y="-38.05" font-family="Helvetica,sans-Serif" font-size="11.00" fill="grey"> f</text>
</g>
</g>
</svg>
