<?xml version="1.0" encoding="UTF-8" standalone="no"?>
<!DOCTYPE svg PUBLIC "-//W3C//DTD SVG 1.1//EN"
 "http://www.w3.org/Graphics/SVG/1.1/DTD/svg11.dtd">
<!-- Generated by graphviz version 10.0.1 (0)
 -->
<!-- Title: Graphical Class Hierarchy Pages: 1 -->
<svg width="382pt" height="27pt"
 viewBox="0.00 0.00 382.25 27.25" xmlns="http://www.w3.org/2000/svg" xmlns:xlink="http://www.w3.org/1999/xlink">
<g id="graph0" class="graph" transform="scale(1 1) rotate(0) translate(4 23.25)">
<title>Graphical Class Hierarchy</title>
<!-- Node0 -->
<g id="Node000000" class="node">
<title>Node0</title>
<g id="a_Node000000"><a xlink:title=" ">
<polygon fill="#e0e0e0" stroke="#999999" points="73,-19.25 0,-19.25 0,0 73,0 73,-19.25"/>
<text text-anchor="middle" x="36.5" y="-4.8" font-family="Helvetica,sans-Serif" font-size="11.00">QQuickItem</text>
</a>
</g>
</g>
<!-- Node1 -->
<g id="Node000001" class="node">
<title>Node1</title>
<g id="a_Node000001"><a xlink:href="classqdebugenv_1_1CGenericRenderer.html" target="_top" xlink:title=" ">
<polygon fill="white" stroke="#666666" points="215,-19.25 109,-19.25 109,0 215,0 215,-19.25"/>
<text text-anchor="middle" x="162" y="-4.8" font-family="Helvetica,sans-Serif" font-size="11.00">CGenericRenderer</text>
</a>
</g>
</g>
<!-- Node0&#45;&gt;Node1 -->
<g id="edge1_Node000000_Node000001" class="edge">
<title>Node0&#45;&gt;Node1</title>
<g id="a_edge1_Node000000_Node000001"><a xlink:title=" ">
<path fill="none" stroke="#63b8ff" d="M84.54,-9.62C92.48,-9.62 100.76,-9.62 108.82,-9.62"/>
<polygon fill="#63b8ff" stroke="#63b8ff" points="84.73,-6.13 74.73,-9.63 84.73,-13.13 84.73,-6.13"/>
</a>
</g>
</g>
<!-- Node2 -->
<g id="Node000002" class="node">
<title>Node2</title>
<g id="a_Node000002"><a xlink:href="classqdebugenv_1_1CExtendableRenderer.html" target="_top" xlink:title=" ">
<polygon fill="white" stroke="#666666" points="374.25,-19.25 251,-19.25 251,0 374.25,0 374.25,-19.25"/>
<text text-anchor="middle" x="312.62" y="-4.8" font-family="Helvetica,sans-Serif" font-size="11.00">CExtendableRenderer</text>
</a>
</g>
</g>
<!-- Node1&#45;&gt;Node2 -->
<g id="edge2_Node000001_Node000002" class="edge">
<title>Node1&#45;&gt;Node2</title>
<g id="a_edge2_Node000001_Node000002"><a xlink:title=" ">
<path fill="none" stroke="#63b8ff" d="M226.79,-9.62C234.67,-9.62 242.71,-9.62 250.55,-9.62"/>
<polygon fill="#63b8ff" stroke="#63b8ff" points="226.91,-6.13 216.91,-9.63 226.91,-13.13 226.91,-6.13"/>
</a>
</g>
</g>
</g>
</svg>
